<svg version="1" xmlns="http://www.w3.org/2000/svg" width="594.667" height="594.667" viewBox="0 0 446.000000 446.000000"><path d="M209.7.6c-.3.3-2.7.8-5.4 1-5.8.5-10.7 1.1-21.8 3C163.4 7.8 139.8 16 120 26.3 91.5 41.2 67.9 61.1 46 88.7c-2.1 2.6-13.8 20-15.1 22.4-12.1 22.5-18.1 37.8-24.5 62.4-.4 1.6-.8 3.2-.9 3.5 0 .3-.4 2.7-.9 5.3-.4 2.7-.9 5.9-1.2 7-.6 3.1-1.7 12.8-1.7 15.4-.1 1.3-.4 2.3-.7 2.3-.9 0-.6 28.4.4 29.9.7 1 .6 1.2-.4.6s-1.1-.4-.4.6c.5.8 1 2.7 1.1 4.4.2 4.2 1.2 12.5 1.9 15.5 1 4.3 1.4 6.4 1.8 9.5 1.1 8.2 7.2 27.7 13.3 42.5 13.4 32.6 38.1 64.8 67.8 88.3 3.5 2.8 17.6 12.7 18 12.7.3 0 2.8 1.5 5.7 3.3 4.6 3 21.1 11.2 27.6 13.8 1.2.5 3.2 1.3 4.5 1.8 3.9 1.7 14.1 5.3 15.7 5.6.8.2 4 1 7 1.9 11.3 3.2 32.4 6.8 40.8 6.9.6 0 1.2.4 1.2.9 0 .4.5.8 1.1.8.5 0 .8-.4.5-.8-.3-.5.1-.9.9-.9s1.2.4 1 .7c-.3.4 6.1.7 14 .6 8 0 14.5-.3 14.5-.7 0-.3 1-.5 2.3-.5 3-.1 15.1-1.5 15.7-1.9.3-.2 2.7-.6 5.3-.9 15.3-2.1 41.2-10.8 60.5-20.3 9.2-4.5 35.3-20.8 37.2-23.2.3-.3 3.4-3.1 7-6.1 41.9-35.4 69.2-86 76.6-142 .4-3 .8-6.9.9-8.5 0-1.7.5-3.7 1-4.4.6-1 .4-1.2-.6-.6-1.1.7-1.2.6-.3-.6.9-1.1 1.4-25.4.5-25.4-.1 0-.4-2.3-.6-5-.8-9.3-1.7-15.5-3.9-27.1-4.4-22.3-14.3-48-26.4-68.4-3.1-5.2-6-10-6.4-10.5-.5-.6-3.8-5.1-7.5-10-25-33.8-60-59.7-101.8-75.5-7.8-2.9-28.3-8.4-35.5-9.5-2.5-.4-5.4-.9-6.5-1.1-1.1-.2-4.7-.7-8-1-8.2-.9-7.9-.8-8.7-1.9-.5-.6-.8-.4-.8.5 0 1.3-.1 1.3-1 0-.7-1.1-1-1.1-1-.2 0 .8-.5 1-1.2.5-2-1.3-22.1-1.2-23.7.1-1.1.8-1.3.8-.7-.2.7-1.2-.6-1.7-1.7-.6z"/></svg>